<svg width="500" height="500" viewBox="0 0 500 500" xmlns="http://www.w3.org/2000/svg">
  <path d="M 452.7 270.3 L 451.9 276.3 L 450.8 282.1 L 445.8 287.3 L 448.4 293.8 L 448.9 300.1 L 449.3 306.5 L 441.9 310.5 L 440.7 316.3 L 444.7 324.2 L 441.0 329.3 L 439.2 335.1 L 432.5 338.7 L 430.8 344.5 L 431.5 351.7 L 427.2 356.3 L 425.5 362.4 L 418.8 365.2 L 419.2 372.9 L 413.2 376.0 L 407.1 378.8 L 403.3 383.4 L 399.6 388.1 L 399.0 396.0 L 395.7 401.4 L 389.9 404.1 L 386.3 409.2 L 378.9 409.9 L 375.1 414.9 L 371.2 419.8 L 366.0 423.0 L 359.6 424.4 L 354.6 427.8 L 350.7 433.3 L 345.9 437.4 L 338.7 436.6 L 332.9 438.4 L 328.3 443.3 L 321.9 443.6 L 317.1 448.3 L 311.7 451.7 L 305.0 450.6 L 300.0 455.8 L 293.8 456.7 L 287.3 455.4 L 281.1 455.2 L 274.9 455.3 L 269.0 457.2 L 263.1 459.5 L 257.0 461.3 L 250.7 459.0 L 244.5 464.5 L 238.5 458.2 L 232.4 457.6 L 226.2 457.8 L 219.3 462.8 L 214.2 455.6 L 208.6 452.4 L 201.1 457.7 L 195.3 455.2 L 188.5 456.1 L 183.1 452.3 L 177.4 449.6 L 171.7 447.2 L 166.5 443.5 L 160.2 442.3 L 153.4 442.0 L 148.2 438.5 L 144.7 431.9 L 138.1 430.8 L 131.2 430.1 L 127.2 424.6 L 121.5 421.8 L 117.1 417.2 L 111.8 413.8 L 109.2 407.3 L 105.8 401.9 L 97.7 401.2 L 93.2 396.8 L 92.7 388.9 L 85.6 386.8 L 80.9 382.5 L 78.8 376.2 L 73.5 372.3 L 71.7 366.0 L 65.5 362.4 L 64.4 355.8 L 63.6 349.1 L 57.1 345.4 L 56.3 338.8 L 52.5 333.6 L 51.6 327.2 L 52.2 320.4 L 47.2 315.5 L 42.3 310.4 L 41.7 304.0 L 42.1 297.5 L 38.6 291.8 L 39.4 285.2 L 38.1 279.1 L 39.8 272.6 L 33.6 266.9 L 33.9 260.5 L 36.0 254.1 L 37.2 247.8 L 40.0 241.7 L 37.5 235.3 L 41.7 229.4 L 38.9 222.9 L 35.0 216.0 L 38.3 210.1 L 38.2 203.6 L 41.5 197.9 L 44.8 192.2 L 49.4 187.1 L 50.6 181.0 L 48.3 173.5 L 53.0 168.6 L 56.8 163.5 L 56.1 156.2 L 65.1 153.8 L 64.8 146.6 L 64.3 139.1 L 69.1 134.6 L 76.6 132.1 L 75.8 123.9 L 84.2 122.4 L 85.8 115.8 L 89.2 110.5 L 94.4 106.8 L 97.4 101.1 L 101.6 96.4 L 105.9 91.8 L 110.9 88.0 L 116.9 85.4 L 121.5 81.2 L 125.5 76.2 L 133.8 77.2 L 135.6 68.7 L 144.3 70.9 L 149.5 67.8 L 153.6 62.4 L 160.7 62.9 L 164.1 55.6 L 170.0 53.5 L 176.6 53.4 L 182.1 50.5 L 188.8 51.3 L 194.6 49.5 L 200.2 46.5 L 206.1 44.4 L 212.3 44.1 L 218.5 44.3 L 224.0 39.0 L 230.5 41.5 L 236.5 38.3 L 242.7 39.9 L 248.9 41.0 L 255.1 38.7 L 261.1 43.1 L 267.6 38.3 L 273.5 41.1 L 279.5 42.8 L 285.6 43.8 L 291.9 43.4 L 298.5 42.6 L 303.6 47.5 L 309.9 47.9 L 315.4 50.9 L 320.5 55.0 L 327.2 54.5 L 331.3 60.6 L 337.6 61.5 L 343.4 63.4 L 349.5 65.0 L 352.7 71.9 L 359.8 71.9 L 361.3 80.8 L 368.6 80.7 L 371.9 86.4 L 379.7 86.2 L 383.2 91.6 L 389.2 94.0 L 388.9 103.2 L 397.0 103.6 L 397.9 111.0 L 405.7 112.1 L 409.7 116.7 L 412.1 122.6 L 416.6 126.7 L 420.8 131.2 L 422.3 137.5 L 421.2 145.3 L 424.0 150.5 L 428.6 154.7 L 432.7 159.3 L 437.8 163.5 L 439.5 169.4 L 437.0 176.8 L 444.7 180.4 L 443.7 187.1 Q 437.4 189.1 437.4 189.1 L 437.4 189.1 L 438.5 182.6 L 431.0 179.2 L 431.6 172.7 L 430.3 167.0 L 425.8 162.7 L 421.4 158.5 L 417.2 154.4 L 414.5 149.4 L 413.7 143.2 L 414.0 136.0 L 409.8 131.8 L 403.8 129.0 L 401.5 123.5 L 397.8 119.0 L 389.3 119.1 L 389.3 111.1 L 381.8 110.7 L 380.5 103.8 L 374.3 102.1 L 371.4 96.7 L 363.6 97.6 L 361.4 91.0 L 354.3 91.4 L 351.8 84.9 L 346.1 83.4 L 343.1 77.0 L 336.3 77.8 L 330.9 75.8 L 324.9 75.7 L 321.2 69.9 L 314.9 70.4 L 310.8 65.1 L 305.0 64.5 L 299.4 63.5 L 294.3 60.5 L 288.3 61.5 L 282.7 60.5 L 277.2 59.3 L 271.6 58.1 L 266.1 56.5 L 260.1 61.8 L 254.6 57.6 L 249.0 59.1 L 243.4 58.9 L 237.8 58.9 L 232.4 61.8 L 226.3 57.6 L 221.7 65.4 L 216.1 65.1 L 210.6 65.9 L 205.4 67.6 L 200.2 69.7 L 195.2 72.1 L 188.7 69.8 L 184.1 73.5 L 177.9 72.9 L 173.6 77.1 L 169.8 82.0 L 163.8 82.4 L 160.6 87.8 L 156.1 91.0 L 148.6 89.2 L 146.5 96.1 L 139.0 94.9 L 135.7 99.9 L 131.8 103.8 L 126.0 105.6 L 122.3 109.8 L 118.2 113.6 L 115.7 118.9 L 112.4 123.4 L 108.1 126.9 L 105.4 131.8 L 104.8 138.3 L 95.2 138.0 L 97.4 146.2 L 89.3 147.5 L 85.7 151.9 L 87.3 159.1 L 87.2 165.3 L 80.3 167.9 L 79.2 173.5 L 77.8 178.9 L 72.5 182.7 L 74.5 189.3 L 73.7 194.7 L 70.4 199.4 L 67.0 204.2 L 64.1 209.3 L 64.7 215.1 L 62.2 220.3 L 64.6 226.2 L 67.3 232.0 L 64.0 237.1 L 66.5 242.7 L 63.2 248.1 L 63.0 253.6 L 61.2 259.1 L 61.2 264.7 L 66.5 269.7 L 65.3 275.4 L 65.2 280.9 L 65.1 286.5 L 66.6 291.9 L 66.6 297.6 L 66.5 303.4 L 73.2 307.1 L 78.4 311.1 L 75.5 317.9 L 77.1 323.2 L 79.7 328.1 L 81.5 333.3 L 85.9 337.2 L 87.7 342.5 L 87.6 349.0 L 93.8 351.6 L 95.1 357.4 L 100.0 360.6 L 101.3 366.5 L 104.1 371.4 L 111.5 372.3 L 111.5 379.7 L 116.3 382.8 L 123.0 383.7 L 125.3 389.3 L 126.9 395.9 L 133.1 397.1 L 135.6 403.0 L 140.6 405.6 L 145.0 409.0 L 151.6 409.1 L 157.5 409.8 L 158.9 418.6 L 164.6 419.8 L 170.2 421.0 L 176.0 421.4 L 180.6 424.7 L 185.0 428.8 L 190.2 430.8 L 195.1 434.0 L 201.4 432.4 L 206.3 435.7 L 212.7 432.2 L 218.0 433.7 L 222.5 440.8 L 228.7 436.5 L 234.3 435.7 L 239.6 437.6 L 245.0 442.9 L 250.7 437.7 L 256.3 442.3 L 261.8 439.1 L 267.2 437.4 L 272.6 436.0 L 278.1 435.4 L 283.8 435.9 L 289.9 438.2 L 295.6 437.6 L 300.2 433.2 L 306.8 435.6 L 310.9 429.9 L 316.1 428.0 L 321.7 426.8 L 325.6 421.8 L 331.0 420.4 L 338.5 423.0 L 342.5 418.3 L 346.3 413.8 L 350.7 410.3 L 356.9 409.5 L 362.4 407.5 L 365.7 402.4 L 370.0 398.9 L 377.5 399.0 L 379.4 392.5 L 385.5 390.7 L 389.7 386.8 L 389.3 378.6 L 392.7 374.2 L 398.3 371.7 L 403.9 368.9 L 409.3 365.7 L 408.6 358.3 L 415.5 356.0 L 416.9 350.1 L 421.5 346.1 L 420.1 338.9 L 423.9 334.5 L 429.0 330.5 L 431.2 325.2 L 434.9 320.5 L 432.0 313.3 L 432.7 307.6 L 441.2 304.2 L 440.7 298.0 L 439.9 291.9 L 439.5 286.1 L 442.8 280.9 L 444.4 275.3 L 445.4 269.6 Z" fill="#1B4D28" opacity="0.95" />
</svg>